<svg aria-hidden="true" xmlns="http://www.w3.org/2000/svg"><defs><symbol id="icon-logo" viewBox="0 0 127 32"><path fill="#fff" style="fill:var(--color1,#fff)" d="M31.36 16.32C31.36 24.98 24.483 32 16 32S.64 24.98.64 16.32 7.517.64 16 .64s15.36 7.02 15.36 15.68z"/><path fill="#d41443" style="fill:var(--color2,#d41443)" d="M11.849.562C4.443 2.805 0 8.635 0 16.004c0 6.023 3.091 11.277 8.179 13.904 2.64 1.346 3.027.384.58-1.474-1.739-1.41-2.061-2.05-2.061-4.421 0-1.666-.386-3.011-.966-3.524-1.159-.961-1.288-3.46-.129-4.357.451-.384.902-1.666.966-2.819.322-4.229 4.894-8.201 9.467-8.201s9.145 3.973 9.466 8.201c.064 1.153.515 2.435.966 2.819 1.159.897 1.03 3.396-.129 4.357-.58.513-.966 1.858-.966 3.524 0 2.371-.322 3.011-2.061 4.421-2.705 2.114-1.932 2.883 1.095 1.025 4.25-2.627 7.406-8.33 7.406-13.391C31.813 5.944 21.252-2.257 11.85.562z"/><path fill="#d41443" style="fill:var(--color2,#d41443)" d="M12.686 7.994c-1.159.513-2.125 1.153-2.125 1.538 0 .705 3.477 1.986 5.474 1.986s5.474-1.281 5.474-1.986c0-.769-3.993-2.499-5.603-2.499-.644.064-2.125.449-3.22.961zm33.165 3.332c-.966.256-1.159 1.089-1.159 5.703v5.382h4.572l-.193-5.574c-.193-5.831-.451-6.279-3.22-5.51zm7.535.32c-2.125 1.153-2.898 2.563-2.898 5.318 0 3.78 2.061 5.574 5.86 5.318 2.576-.192 2.833-.384 3.027-1.986s.064-1.73-1.932-1.602c-2.061.192-2.125.064-2.125-2.05s.129-2.243 1.996-2.05c1.546.128 2.125-.128 2.383-1.089.129-.641 0-1.538-.386-1.922-.902-.897-4.25-.897-5.925.064zm7.663.064c-.193.513-.258 3.011-.129 5.638l.193 4.741h4.186c3.864 0 4.186-.128 4.379-1.474.193-1.217-.064-1.41-2.06-1.41-1.288 0-2.319-.32-2.319-.641 0-.384.902-.641 1.932-.641 1.481 0 1.932-.256 1.932-1.281s-.451-1.281-1.932-1.281c-1.03 0-1.932-.32-1.932-.641 0-.384.837-.641 1.868-.641 1.804 0 3.027-1.41 2.254-2.627-.58-.961-7.985-.705-8.372.256zm12.944-.192c-2.125.833-2.962 2.307-3.027 4.998-.065 4.613 1.803 6.215 6.633 5.767 1.868-.128 2.189-.448 2.189-1.794 0-1.41-.257-1.602-2.061-1.41-1.546.128-2.125-.064-2.447-1.089-.58-1.986.644-3.588 2.705-3.588 1.224 0 1.868-.384 1.996-1.217.451-2.05-2.833-3.011-5.989-1.666zm7.921-.256c-.323.256-.515 2.883-.515 5.831v5.382l2.06-.192c1.61-.128 2.19-.577 2.512-1.794l.386-1.602.515 1.73c.387 1.474.837 1.794 2.512 1.794 2.769 0 3.091-.448 1.932-2.691-.708-1.41-.837-2.114-.322-2.627.837-.833.902-3.652.129-4.87-.644-1.025-8.371-1.858-9.208-.961zm5.28 3.46c0 .705-.257 1.281-.644 1.281-.322 0-.644-.577-.644-1.281s.322-1.281.644-1.281c.387 0 .644.577.644 1.281zm6.247-3.396c-.258.192-.451 2.819-.451 5.767v5.318h4.186c4.057 0 4.186-.064 4.186-1.602 0-1.346-.322-1.602-1.932-1.602-1.03 0-1.932-.32-1.932-.641 0-.384.708-.641 1.61-.641 1.159 0 1.61-.32 1.61-1.281s-.451-1.281-1.61-1.281c-.902 0-1.61-.32-1.61-.641 0-.384.902-.641 1.932-.641 1.61 0 1.932-.256 1.932-1.602 0-1.538-.193-1.602-3.735-1.602-2.061 0-3.992.192-4.186.448zm13.009-.064c-1.16.32-4.122 8.842-3.542 10.252.515 1.281 3.413 1.153 4.186-.192.579-1.089.644-1.089 1.803 0 1.482 1.281 4.701 1.474 4.701.256 0-.384-.644-2.947-1.482-5.574-1.288-4.229-1.674-4.806-3.027-4.934-.902 0-2.061.064-2.64.192zm1.803 5.831c-.193.641-.322.256-.322-.769 0-1.089.129-1.538.322-1.153.129.448.129 1.346 0 1.922zm7.47-5.767c-.58.192-.837 1.986-.837 5.703v5.382h1.868c1.61 0 1.932-.32 2.189-1.794.257-1.666.257-1.666.772-.32.258.833.902 1.474 1.352 1.474.515 0 1.224-.641 1.546-1.474.515-1.346.58-1.346.58.384.065 1.602.257 1.794 2.061 1.602l1.996-.192.065-5.318c.129-4.934.064-5.318-1.288-5.638-2.061-.513-3.799.705-4.379 3.076l-.451 2.114-.708-2.243c-.902-3.011-2.254-3.78-4.765-2.755zm-106.707.641c-.193.256-.386 1.089-.386 1.922 0 1.474.064 1.474 7.406 1.474s7.406 0 7.406-1.474c0-2.178-.58-2.435-2.64-1.41-2.318 1.217-7.213 1.217-9.531 0-1.03-.513-1.996-.705-2.254-.513zm-1.868 5.702c-1.03 1.089.708 1.538 5.731 1.538h5.409v2.243c0 1.217.322 2.243.644 2.243.386 0 .644-.961.644-2.178 0-2.114.129-2.243 2.576-2.435 1.417-.128 2.576-.513 2.576-.833 0-.705-16.872-1.281-17.581-.577z"/><path fill="#d41443" style="fill:var(--color2,#d41443)" d="M8.629 23.308c0 3.524 1.224 4.229 7.406 4.229s7.406-.705 7.406-4.229c0-1.538-.322-2.178-.966-2.178-.58 0-.966.577-.966 1.538 0 3.588-4.894 3.908-5.603.384-.322-1.858-.515-1.922-3.8-1.922H8.629v2.178zm3.993 7.24c.386 2.05 6.955 1.858 6.955-.128 0-.705-.837-.961-3.606-.961-3.027 0-3.542.192-3.349 1.089z"/></symbol><symbol id="icon-facebook" viewBox="0 0 16 32"><path d="M14.143 15.972h-4.034v14.865H3.997V15.972H1.09v-5.224h2.907V7.367c0-2.418 1.142-6.203 6.166-6.203l4.527.019v5.071h-3.285c-.539 0-1.296.271-1.296 1.424v3.075h4.567l-.534 5.219z"/></symbol><symbol id="icon-telegram" viewBox="0 0 44 32"><path d="m17.343 21.048-.675 8.86c.966 0 1.384-.387 1.885-.852l4.527-4.038 9.381 6.412c1.72.895 2.933.424 3.397-1.477l6.159-26.93c.546-2.374-.92-3.302-2.596-2.72L3.227 13.236c-2.47.895-2.433 2.18-.42 2.762l9.253 2.686L33.554 6.132c1.012-.625 1.931-.279 1.175.346l-17.386 14.57z"/></symbol><symbol id="icon-github" viewBox="0 0 32 32"><path d="M16 0C7.212 0 0 7.212 0 16c0 7.499 5.262 14.312 12.25 16v-5.293c-.692.152-1.33.156-2.034-.052-.946-.279-1.714-.909-2.284-1.869-.364-.613-1.008-1.278-1.68-1.23l-.165-1.868c1.453-.124 2.711.886 3.457 2.14.332.558.713.884 1.203 1.029.473.14.982.072 1.574-.137.149-1.186.692-1.63 1.102-2.255v-.001c-4.167-.622-5.828-2.832-6.488-4.578-.874-2.317-.405-5.212 1.14-7.041.03-.036.084-.129.063-.194-.708-2.139.155-3.909.187-4.097.817.242.95-.243 3.551 1.337l.449.27c.188.112.129.048.317.034A13.544 13.544 0 0 1 16 7.723c1.136.015 2.273.178 3.404.484l.145.015c-.013-.002.04-.009.127-.062 3.248-1.968 3.132-1.324 4.003-1.608.032.188.883 1.987.182 4.099-.095.291 2.816 2.956 1.203 7.235-.659 1.746-2.32 3.957-6.487 4.578v.001c.534.814 1.176 1.247 1.173 2.927V32C26.738 30.312 32 23.499 32 16c0-8.788-7.212-16-16-16z"/></symbol><symbol id="icon-arrow" viewBox="0 0 19 32"><path stroke-linejoin="round" stroke-linecap="round" stroke-width="6.4" d="M3.2 3.2 16 16 3.2 28.8"/></symbol><symbol id="icon-close" viewBox="0 0 32 32"><path stroke-width="2" d="m2.519 2 26.963 28M2 29.481 30 2.518"/></symbol><symbol id="icon-burger" viewBox="0 0 46 32"><path stroke-width="2.286" d="M0 2.286h45.714M0 16h45.714M0 29.714h45.714"/></symbol><symbol id="icon-commas" viewBox="0 0 43 32"><path d="M32.014 0c1.929 0 3.75.52 5.464 1.561s3.107 2.537 4.179 4.488C42.686 8 43.2 10.298 43.2 12.943s-.643 5.225-1.929 7.74c-.429.911-1.2 2.081-2.314 3.512a63.368 63.368 0 0 1-3.214 3.707L31.693 32 28.8 27.187a22.03 22.03 0 0 0 5.336-4.683c1.543-1.821 2.314-3.491 2.314-5.008 0-.78-.171-1.409-.514-1.886a8.359 8.359 0 0 1-5.014 1.626c-1.329 0-2.593-.412-3.793-1.236a8.555 8.555 0 0 1-2.957-3.122c-.771-1.258-1.157-2.558-1.157-3.902 0-1.518.45-2.97 1.35-4.358a10.222 10.222 0 0 1 3.407-3.382C29.143.412 30.558 0 32.015 0zM8.936 0c1.929 0 3.75.52 5.464 1.561s3.107 2.537 4.179 4.488c1.029 1.951 1.543 4.249 1.543 6.894 0 1.864-.236 3.534-.707 5.008-.471 1.518-1.286 3.1-2.443 4.748-1.114 1.561-2.164 2.862-3.15 3.902-.986 1.084-2.7 2.884-5.143 5.398l-2.893-4.813a22.03 22.03 0 0 0 5.336-4.683c1.543-1.821 2.314-3.491 2.314-5.008 0-.78-.171-1.409-.514-1.886a8.359 8.359 0 0 1-5.014 1.626c-1.329 0-2.593-.412-3.793-1.236a8.555 8.555 0 0 1-2.957-3.122C.387 11.619.001 10.319.001 8.975c0-1.518.429-2.97 1.286-4.358S3.28 2.102 4.694 1.235C6.065.411 7.48-.001 8.937-.001z"/></symbol><symbol id="icon-house" viewBox="0 0 32 32"><path d="M31.599 16.766c.58-.595.524-1.507-.125-2.037L17.173 3.056c-.649-.53-1.69-.518-2.325.025L.498 15.351c-.635.543-.667 1.454-.069 2.034l.36.35c.597.579 1.562.648 2.154.154l1.072-.896v13.116c0 .805.699 1.456 1.561 1.456h5.594c.862 0 1.561-.651 1.561-1.456v-9.176h7.135v9.176c-.012.804.604 1.455 1.466 1.455h5.928c.862 0 1.561-.651 1.561-1.456v-12.93l.662.542c.366.3 1.131.059 1.711-.536l.407-.417z"/></symbol><symbol id="icon-heart" viewBox="0 0 28 32"><path fill="#ffa5ba" style="fill:var(--color1,#ffa5ba)" d="M6.507.682c-2.81.589-4.991 2.897-5.702 6.037-.261 1.097-.249 3.209.012 4.409.581 2.666 1.873 5.032 3.912 7.087 1.826 1.847 3.426 2.966 5.963 4.132l1.328.623v8.414h1.423v-7.953l.356.104c.202.058.51.058.711 0l.356-.104v7.953h1.423v-8.426l1.268-.577c2.454-1.131 4.232-2.355 5.963-4.109 2.762-2.805 4.173-5.99 4.173-9.453.012-3.797-1.98-6.879-5.109-7.93C21.92.658 21.576.624 20.32.635c-1.316.012-1.612.058-2.608.369-1.174.381-2.324.981-3.082 1.604l-.439.369-.64-.473C11.903 1.292 10.22.703 8.24.623 7.552.6 6.77.623 6.509.681zM9.21 2.113a10.13 10.13 0 0 1 1.529.427c.759.312 2.027 1.108 2.525 1.581.771.727.984.716 1.861-.069 1.375-1.247 3.592-2.101 5.418-2.101 2.478 0 4.742 1.939 5.465 4.675.13.485.249 1.27.261 1.743.047 1.039.012 1.073-1.6 1.685-1.304.496-2.395.739-4.268.946-1.197.139-1.446.208-1.814.473-.759.566-.877.981-.877 3.336 0 1.766-.024 2.101-.202 2.285-.249.277-.688.265-.984-.023-.225-.219-.237-.381-.237-2.712 0-2.585-.071-3.024-.557-3.543-.107-.115-.948-.566-1.861-1.016-1.031-.485-2.063-1.085-2.679-1.558-2.976-2.228-4.292-2.863-6.734-3.243a33.294 33.294 0 0 1-1.316-.231c-.107-.081.533-.9 1.114-1.408 1.375-1.224 2.94-1.616 4.955-1.247zM5.286 6.569c1.209.3 2.573.981 3.817 1.904.522.381 1.186.866 1.482 1.085.794.589 2.11 1.327 3.106 1.743.486.208.948.45 1.031.554.107.127.142.854.142 2.666 0 2.181.036 2.551.225 2.955.391.831 1.02 1.212 1.98 1.212.616 0 1.043-.185 1.494-.658.51-.519.569-.843.569-3.047 0-2.505-.024-2.459 1.375-2.574 1.423-.127 3.189-.508 4.363-.935.593-.219 1.103-.369 1.126-.335.13.127-.759 2.389-1.28 3.266-.83 1.42-1.482 2.228-2.739 3.405-1.826 1.708-4.339 3.174-6.9 4.051l-.925.323-.913-.323c-2.739-.923-5.157-2.389-7.101-4.271-2.466-2.366-3.758-4.871-4.078-7.837-.119-1.108.059-3.013.332-3.463.095-.162 1.79.012 2.893.277z"/><path fill="none" stroke="#ffa5ba" style="stroke:var(--color1,#ffa5ba)" stroke-width=".615" d="M6.507.682c-2.81.589-4.991 2.897-5.702 6.037-.261 1.097-.249 3.209.012 4.409.581 2.666 1.873 5.032 3.912 7.087 1.826 1.847 3.426 2.966 5.963 4.132l1.328.623v8.414h1.423v-7.953l.356.104c.202.058.51.058.711 0l.356-.104v7.953h1.423v-8.426l1.268-.577c2.454-1.131 4.232-2.355 5.963-4.109 2.762-2.805 4.173-5.99 4.173-9.453.012-3.797-1.98-6.879-5.109-7.93C21.92.658 21.576.624 20.32.635c-1.316.012-1.612.058-2.608.369-1.174.381-2.324.981-3.082 1.604l-.439.369-.64-.473C11.903 1.292 10.22.703 8.24.623 7.552.6 6.77.623 6.509.681zM9.21 2.113a10.13 10.13 0 0 1 1.529.427c.759.312 2.027 1.108 2.525 1.581.771.727.984.716 1.861-.069 1.375-1.247 3.592-2.101 5.418-2.101 2.478 0 4.742 1.939 5.465 4.675.13.485.249 1.27.261 1.743.047 1.039.012 1.073-1.6 1.685-1.304.496-2.395.739-4.268.946-1.197.139-1.446.208-1.814.473-.759.566-.877.981-.877 3.336 0 1.766-.024 2.101-.202 2.285-.249.277-.688.265-.984-.023-.225-.219-.237-.381-.237-2.712 0-2.585-.071-3.024-.557-3.543-.107-.115-.948-.566-1.861-1.016-1.031-.485-2.063-1.085-2.679-1.558-2.976-2.228-4.292-2.863-6.734-3.243a33.294 33.294 0 0 1-1.316-.231c-.107-.081.533-.9 1.114-1.408 1.375-1.224 2.94-1.616 4.955-1.247zM5.286 6.569c1.209.3 2.573.981 3.817 1.904.522.381 1.186.866 1.482 1.085.794.589 2.11 1.327 3.106 1.743.486.208.948.45 1.031.554.107.127.142.854.142 2.666 0 2.181.036 2.551.225 2.955.391.831 1.02 1.212 1.98 1.212.616 0 1.043-.185 1.494-.658.51-.519.569-.843.569-3.047 0-2.505-.024-2.459 1.375-2.574 1.423-.127 3.189-.508 4.363-.935.593-.219 1.103-.369 1.126-.335.13.127-.759 2.389-1.28 3.266-.83 1.42-1.482 2.228-2.739 3.405-1.826 1.708-4.339 3.174-6.9 4.051l-.925.323-.913-.323c-2.739-.923-5.157-2.389-7.101-4.271-2.466-2.366-3.758-4.871-4.078-7.837-.119-1.108.059-3.013.332-3.463.095-.162 1.79.012 2.893.277z"/></symbol><symbol id="icon-apples" viewBox="0 0 32 32"><path d="M29.626 21.411c-1.292-.458-2.382-.344-3.242.018.145-.877.47-1.832 1.17-2.481a1.065 1.065 0 0 0-1.449-1.561c-1.229 1.14-1.706 2.748-1.874 4.081a4.036 4.036 0 0 0-1.058-.311l1.89-9.83a1.065 1.065 0 0 0-1.046-1.266h-.204c.094-.5.141-.997.137-1.47-.016-1.994-.903-3.495-2.374-4.017-1.41-.5-2.59-.35-3.507.066.145-.976.494-2.063 1.282-2.794A1.065 1.065 0 0 0 17.902.285c-1.32 1.225-1.815 2.965-1.982 4.386-.735-.348-1.644-.527-2.708-.33-1.094-1.571-2.613-2.296-4.089-1.942-1.451.349-2.358 1.115-2.901 1.962-.41-.899-.712-2.001-.452-3.036A1.065 1.065 0 0 0 3.705.806c-.439 1.746.095 3.476.729 4.758-1.016.137-2.117.65-3.049 1.866-.578.755-.773 1.698-.596 2.7a1.065 1.065 0 0 0-.674 1.197l3.809 19.81c.096.501.535.864 1.046.864h15.237c.511 0 .949-.362 1.046-.864l.037-.195c.287.198.596.363.927.487 1.266.471 2.447.278 3.044.118.316.085.795.179 1.364.179.506 0 1.084-.075 1.68-.297 2.36-.879 3.615-3.839 3.596-6.178-.015-1.904-.866-3.339-2.276-3.839zm-6.952-9.22c-.49 4.705-4.452 7.91-9.971 7.91s-9.481-3.204-9.971-7.91h19.942zm-6.642-4.676a1.047 1.047 0 0 0 1.86 0c.029-.048.29-.466.769-.777.629-.408 1.35-.46 2.203-.157.851.302.952 1.518.956 2.027.004.464-.064.962-.191 1.453h-7.126c.236-1.19.094-2.492-.289-3.669a2.12 2.12 0 0 1 1.047.346c.479.311.74.729.769.777zM3.078 8.724c.55-.719 1.182-1.068 1.932-1.069h.002c.57 0 1.016.208 1.066.232.341.19.749.172 1.079-.037.331-.211.51-.592.481-.983-.006-.077-.115-1.893 1.983-2.397.876-.211 1.625.754 1.906 1.178.807 1.22 1.221 3.108.777 4.413H2.955c-.141-.443-.179-.943.122-1.336zM5.852 29.87 3.741 18.892c.138.133.281.263.427.389 2.208 1.901 5.239 2.948 8.535 2.948s6.328-1.047 8.535-2.948l.152-.135-.431 2.243c-.02.007-.041.013-.061.021-1.41.5-2.261 1.935-2.276 3.839a7.862 7.862 0 0 0 .898 3.621l-.192.999H5.851zm21.71-.438c-.943.351-1.881.017-1.916.005a1.04 1.04 0 0 0-.768 0c-.009.004-.96.352-1.917-.005-1.338-.498-2.223-2.556-2.21-4.165.004-.466.095-1.578.858-1.849.349-.124.661-.175.939-.175 1.107 0 1.657.812 1.782 1.024a1.047 1.047 0 0 0 1.862 0c.156-.265.977-1.468 2.721-.849.763.271.854 1.383.858 1.849.013 1.609-.872 3.667-2.21 4.166z"/></symbol><symbol id="icon-bucked" viewBox="0 0 21 32"><path fill="#ffa5ba" style="fill:var(--color1,#ffa5ba)" d="M2.333.144c-.35.188-.553.563-.553 1.006.006.813.209 1.556.614 2.2l.178.294-.338.381c-.381.425-.473.581-.645 1.088-.141.412-.153 1.162-.031 1.581.43 1.438 1.854 2.269 3.248 1.9.473-.125.761-.281 1.203-.656l.375-.312.35.175c.196.1.528.244.743.325l.381.138v.7c0 1.106.227 1.762.81 2.356s1.498.9 2.29.763c.565-.1 1.117-.381 1.492-.763.583-.594.81-1.25.81-2.356v-.7l.387-.138c.209-.081.54-.225.737-.325l.35-.175.375.312c.442.375.731.531 1.203.656 1.394.369 2.818-.462 3.248-1.9.123-.419.111-1.169-.031-1.581-.172-.506-.264-.662-.645-1.088l-.338-.381.178-.294c.405-.644.608-1.387.614-2.2 0-.444-.203-.819-.553-1.006L18.521 0H2.595l-.264.144zM17.068 2.1c0 .019-.178.313-.399.663-.651 1.031-.626 1.256.239 2.169.313.331.602.662.645.737.233.463-.233 1.038-.749.919-.123-.025-.393-.244-.786-.631-.786-.775-1.056-.862-1.658-.519-.694.4-1.578.806-2.008.925-.608.175-.817.306-.976.638-.129.256-.141.362-.141 1.362 0 1.231-.049 1.431-.399 1.6-.252.125-.301.125-.553 0-.35-.169-.399-.369-.399-1.6 0-1-.012-1.106-.135-1.362-.166-.325-.375-.463-.982-.638-.528-.15-1.308-.494-1.738-.775-.405-.263-.761-.362-1.044-.313-.184.037-.368.181-.86.662-.405.394-.694.625-.817.65-.51.119-.976-.463-.743-.919.043-.075.332-.406.645-.737.866-.912.89-1.138.239-2.169-.221-.35-.399-.644-.399-.663 0-.025 2.929-.038 6.508-.038s6.508.013 6.508.038zM.485 13.206c-.313.212-.485.512-.485.844 0 .225 3.119 16.925 3.229 17.275.055.194.282.425.522.55.227.125.387.125 6.809.125s6.582 0 6.809-.125c.239-.125.467-.356.522-.55.11-.35 3.229-17.05 3.229-17.275 0-.331-.172-.631-.485-.844l-.209-.144H.694l-.209.144zm18.21 2.275c-.061.5-.418 1.587-.682 2.081-1.283 2.375-3.714 3.819-6.729 3.988-2.278.131-4.206-.331-5.82-1.394a7 7 0 0 1-2.265-2.438c-.307-.544-.712-1.712-.774-2.237l-.043-.356h16.356l-.043.356zM4.39 21.919c2.634 1.775 6.569 2.244 9.885 1.169a10.688 10.688 0 0 0 3.18-1.688c.276-.219.295-.219.264-.081-.018.081-.381 1.994-.804 4.244s-.78 4.156-.798 4.231l-.031.144H5.035l-.031-.144c-.018-.075-.375-1.981-.798-4.231s-.786-4.163-.804-4.244c-.031-.137-.012-.137.264.081.16.125.491.356.724.519z"/></symbol><symbol id="icon-btn-arrow" viewBox="0 0 19 32"><path fill="none" stroke="#d41443" style="stroke:var(--color1,#d41443)" stroke-linejoin="round" stroke-linecap="round" stroke-width="6.4" d="M3.2 3.2 16 16 3.2 28.8"/></symbol><symbol id="icon-btn-arrow-wight" viewBox="0 0 19 32"><path fill="none" stroke="#fff" style="stroke:var(--color1,#fff)" stroke-linejoin="round" stroke-linecap="round" stroke-width="6.4" d="M3.2 3.2 16 16 3.2 28.8"/></symbol><symbol id="icon-icon-right" viewBox="0 0 32 32"><path d="m22.748 12.7-4.781-4.781a2 2 0 0 0-2.828 2.83l3.252 3.252H6.667a2 2 0 1 0 0 4h11.724l-3.252 3.252a2 2 0 0 0 2.828 2.83l4.781-4.781c.843-.845 1.364-2.012 1.364-3.3s-.521-2.455-1.364-3.3z"/></symbol><symbol id="icon-scrollup" viewBox="0 0 32 32"><path d="M0 16c0 8.837 7.163 16 16 16s16-7.163 16-16S24.837 0 16 0 0 7.163 0 16zm29 0c0 7.18-5.82 13-13 13S3 23.18 3 16 8.82 3 16 3s13 5.82 13 13z"/><path d="m22.086 20.914 2.829-2.829-8.914-8.914-8.914 8.914 2.828 2.828 6.086-6.086z"/></symbol><symbol id="icon-mobile" viewBox="0 0 32 32"><path d="M23 0H9C7.35 0 6 1.35 6 3v26c0 1.65 1.35 3 3 3h14c1.65 0 3-1.35 3-3V3c0-1.65-1.35-3-3-3zM12 1.5h8v1h-8v-1zM16 30a2 2 0 1 1-.001-3.999A2 2 0 0 1 16 30zm8-6H8V4h16v20z"/></symbol><symbol id="icon-user" viewBox="0 0 32 32"><path d="M18 22.082v-1.649c2.203-1.241 4-4.337 4-7.432 0-4.971 0-9-6-9s-6 4.029-6 9c0 3.096 1.797 6.191 4 7.432v1.649C7.216 22.637 2 25.97 2 30h28c0-4.03-5.216-7.364-12-7.918z"/></symbol><symbol id="icon-mail" viewBox="0 0 32 32"><path d="M16 0C7.163 0 0 7.163 0 16s7.163 16 16 16 16-7.163 16-16S24.837 0 16 0zM8 8h16c.286 0 .563.061.817.177L16 18.463 7.183 8.176c.254-.116.531-.177.817-.177zM6 22V10c0-.042.002-.084.004-.125l5.864 6.842-5.8 5.8A1.983 1.983 0 0 1 5.999 22zm18 2H8c-.177 0-.35-.024-.517-.069l5.691-5.691L16 21.537l2.826-3.297 5.691 5.691c-.167.045-.34.069-.517.069zm2-2c0 .177-.024.35-.069.517l-5.8-5.8 5.865-6.842c.003.041.004.083.004.125v12z"/></symbol><symbol id="icon-cross" viewBox="0 0 32 32"><path d="M31.708 25.708 22 16l9.708-9.708a1 1 0 0 0 0-1.414L27.122.292a1 1 0 0 0-1.414-.001L16 9.999 6.292.291a.998.998 0 0 0-1.414.001L.292 4.878a1 1 0 0 0 0 1.414L10 16 .292 25.708a.999.999 0 0 0 0 1.414l4.586 4.586a1 1 0 0 0 1.414 0L16 22l9.708 9.708a1 1 0 0 0 1.414 0l4.586-4.586a.999.999 0 0 0 0-1.414z"/></symbol></defs></svg>