<svg aria-hidden="true" xmlns="http://www.w3.org/2000/svg">
  <defs>
    <symbol id="icon-logo" viewBox="0 0 127 32">
      <path fill="#fff" style="fill:var(--color1, #fff)"
        d="M31.36 16.32C31.36 24.98 24.483 32 16 32S.64 24.98.64 16.32 7.517.64 16 .64s15.36 7.02 15.36 15.68z" />
      <path fill="#d41443" style="fill:var(--color2, #d41443)"
        d="M11.849.562C4.443 2.805 0 8.635 0 16.004c0 6.023 3.091 11.277 8.179 13.904 2.64 1.346 3.027.384.58-1.474-1.739-1.41-2.061-2.05-2.061-4.421 0-1.666-.386-3.011-.966-3.524-1.159-.961-1.288-3.46-.129-4.357.451-.384.902-1.666.966-2.819.322-4.229 4.894-8.201 9.467-8.201s9.145 3.973 9.466 8.201c.064 1.153.515 2.435.966 2.819 1.159.897 1.03 3.396-.129 4.357-.58.513-.966 1.858-.966 3.524 0 2.371-.322 3.011-2.061 4.421-2.705 2.114-1.932 2.883 1.095 1.025 4.25-2.627 7.406-8.33 7.406-13.391C31.813 5.944 21.252-2.257 11.85.562z" />
      <path fill="#d41443" style="fill:var(--color2, #d41443)"
        d="M12.686 7.994c-1.159.513-2.125 1.153-2.125 1.538 0 .705 3.477 1.986 5.474 1.986s5.474-1.281 5.474-1.986c0-.769-3.993-2.499-5.603-2.499-.644.064-2.125.449-3.22.961zM45.851 11.326c-.966.256-1.159 1.089-1.159 5.703v5.382h4.572l-.193-5.574c-.193-5.831-.451-6.279-3.22-5.51zM53.386 11.646c-2.125 1.153-2.898 2.563-2.898 5.318 0 3.78 2.061 5.574 5.86 5.318 2.576-.192 2.833-.384 3.027-1.986s.064-1.73-1.932-1.602c-2.061.192-2.125.064-2.125-2.05s.129-2.243 1.996-2.05c1.546.128 2.125-.128 2.383-1.089.129-.641 0-1.538-.386-1.922-.902-.897-4.25-.897-5.925.064zM61.049 11.71c-.193.513-.258 3.011-.129 5.638l.193 4.741h4.186c3.864 0 4.186-.128 4.379-1.474.193-1.217-.064-1.41-2.06-1.41-1.288 0-2.319-.32-2.319-.641 0-.384.902-.641 1.932-.641 1.481 0 1.932-.256 1.932-1.281s-.451-1.281-1.932-1.281c-1.03 0-1.932-.32-1.932-.641 0-.384.837-.641 1.868-.641 1.804 0 3.027-1.41 2.254-2.627-.58-.961-7.985-.705-8.372.256zM73.993 11.518c-2.125.833-2.962 2.307-3.027 4.998-.065 4.613 1.803 6.215 6.633 5.767 1.868-.128 2.189-.448 2.189-1.794 0-1.41-.257-1.602-2.061-1.41-1.546.128-2.125-.064-2.447-1.089-.58-1.986.644-3.588 2.705-3.588 1.224 0 1.868-.384 1.996-1.217.451-2.05-2.833-3.011-5.989-1.666zM81.914 11.262c-.323.256-.515 2.883-.515 5.831v5.382l2.06-.192c1.61-.128 2.19-.577 2.512-1.794l.386-1.602.515 1.73c.387 1.474.837 1.794 2.512 1.794 2.769 0 3.091-.448 1.932-2.691-.708-1.41-.837-2.114-.322-2.627.837-.833.902-3.652.129-4.87-.644-1.025-8.371-1.858-9.208-.961zm5.28 3.46c0 .705-.257 1.281-.644 1.281-.322 0-.644-.577-.644-1.281s.322-1.281.644-1.281c.387 0 .644.577.644 1.281zM93.441 11.326c-.258.192-.451 2.819-.451 5.767v5.318h4.186c4.057 0 4.186-.064 4.186-1.602 0-1.346-.322-1.602-1.932-1.602-1.03 0-1.932-.32-1.932-.641 0-.384.708-.641 1.61-.641 1.159 0 1.61-.32 1.61-1.281s-.451-1.281-1.61-1.281c-.902 0-1.61-.32-1.61-.641 0-.384.902-.641 1.932-.641 1.61 0 1.932-.256 1.932-1.602 0-1.538-.193-1.602-3.735-1.602-2.061 0-3.992.192-4.186.448zM106.45 11.262c-1.16.32-4.122 8.842-3.542 10.252.515 1.281 3.413 1.153 4.186-.192.579-1.089.644-1.089 1.803 0 1.482 1.281 4.701 1.474 4.701.256 0-.384-.644-2.947-1.482-5.574-1.288-4.229-1.674-4.806-3.027-4.934-.902 0-2.061.064-2.64.192zm1.803 5.831c-.193.641-.322.256-.322-.769 0-1.089.129-1.538.322-1.153.129.448.129 1.346 0 1.922zM115.723 11.326c-.58.192-.837 1.986-.837 5.703v5.382h1.868c1.61 0 1.932-.32 2.189-1.794.257-1.666.257-1.666.772-.32.258.833.902 1.474 1.352 1.474.515 0 1.224-.641 1.546-1.474.515-1.346.58-1.346.58.384.065 1.602.257 1.794 2.061 1.602l1.996-.192.065-5.318c.129-4.934.064-5.318-1.288-5.638-2.061-.513-3.799.705-4.379 3.076l-.451 2.114-.708-2.243c-.902-3.011-2.254-3.78-4.765-2.755zM9.016 11.967c-.193.256-.386 1.089-.386 1.922 0 1.474.064 1.474 7.406 1.474s7.406 0 7.406-1.474c0-2.178-.58-2.435-2.64-1.41-2.318 1.217-7.213 1.217-9.531 0-1.03-.513-1.996-.705-2.254-.513zM7.148 17.669c-1.03 1.089.708 1.538 5.731 1.538h5.409v2.243c0 1.217.322 2.243.644 2.243.386 0 .644-.961.644-2.178 0-2.114.129-2.243 2.576-2.435 1.417-.128 2.576-.513 2.576-.833 0-.705-16.872-1.281-17.581-.577z" />
      <path fill="#d41443" style="fill:var(--color2, #d41443)"
        d="M8.629 23.308c0 3.524 1.224 4.229 7.406 4.229s7.406-.705 7.406-4.229c0-1.538-.322-2.178-.966-2.178-.58 0-.966.577-.966 1.538 0 3.588-4.894 3.908-5.603.384-.322-1.858-.515-1.922-3.8-1.922H8.629v2.178zM12.622 30.548c.386 2.05 6.955 1.858 6.955-.128 0-.705-.837-.961-3.606-.961-3.027 0-3.542.192-3.349 1.089z" />
    </symbol>
    <symbol id="icon-facebook" viewBox="0 0 16 32">
      <path
        d="M14.143 15.972h-4.034v14.865H3.997V15.972H1.09v-5.224h2.907V7.367c0-2.418 1.142-6.203 6.166-6.203l4.527.019v5.071h-3.285c-.539 0-1.296.271-1.296 1.424v3.075h4.567l-.534 5.219z" />
    </symbol>
    <symbol id="icon-telegram" viewBox="0 0 44 32">
      <path
        d="m17.343 21.048-.675 8.86c.966 0 1.384-.387 1.885-.852l4.527-4.038 9.381 6.412c1.72.895 2.933.424 3.397-1.477l6.159-26.93c.546-2.374-.92-3.302-2.596-2.72L3.227 13.236c-2.47.895-2.433 2.18-.42 2.762l9.253 2.686L33.554 6.132c1.012-.625 1.931-.279 1.175.346l-17.386 14.57z" />
    </symbol>
    <symbol id="icon-github" viewBox="0 0 32 32">
      <path
        d="M16 0C7.212 0 0 7.212 0 16c0 7.499 5.262 14.312 12.25 16v-5.293c-.692.152-1.33.156-2.034-.052-.946-.279-1.714-.909-2.284-1.869-.364-.613-1.008-1.278-1.68-1.23l-.165-1.868c1.453-.124 2.711.886 3.457 2.14.332.558.713.884 1.203 1.029.473.14.982.072 1.574-.137.149-1.186.692-1.63 1.102-2.255v-.001c-4.167-.622-5.828-2.832-6.488-4.578-.874-2.317-.405-5.212 1.14-7.041.03-.036.084-.129.063-.194-.708-2.139.155-3.909.187-4.097.817.242.95-.243 3.551 1.337l.449.27c.188.112.129.048.317.034A13.544 13.544 0 0 1 16 7.723c1.136.015 2.273.178 3.404.484l.145.015c-.013-.002.04-.009.127-.062 3.248-1.968 3.132-1.324 4.003-1.608.032.188.883 1.987.182 4.099-.095.291 2.816 2.956 1.203 7.235-.659 1.746-2.32 3.957-6.487 4.578v.001c.534.814 1.176 1.247 1.173 2.927V32C26.738 30.312 32 23.499 32 16c0-8.788-7.212-16-16-16z" />
    </symbol>
    <symbol id="icon-arrow" viewBox="0 0 19 32">
      <path stroke-linejoin="round" stroke-linecap="round" stroke-width="6.4" d="M3.2 3.2 16 16 3.2 28.8" />
    </symbol>
    <symbol id="icon-close" viewBox="0 0 32 32">
      <path stroke-width="2" d="m2.519 2 26.963 28M2 29.481 30 2.518" />
    </symbol>
    <symbol id="icon-burger" viewBox="0 0 46 32">
      <path stroke-width="2.286" d="M0 2.286h45.714M0 16h45.714M0 29.714h45.714" />
    </symbol>
    <symbol id="icon-commas" viewBox="0 0 43 32">
      <path
        d="M32.014 0c1.929 0 3.75.52 5.464 1.561s3.107 2.537 4.179 4.488C42.686 8 43.2 10.298 43.2 12.943s-.643 5.225-1.929 7.74c-.429.911-1.2 2.081-2.314 3.512a63.368 63.368 0 0 1-3.214 3.707L31.693 32 28.8 27.187a22.03 22.03 0 0 0 5.336-4.683c1.543-1.821 2.314-3.491 2.314-5.008 0-.78-.171-1.409-.514-1.886a8.359 8.359 0 0 1-5.014 1.626c-1.329 0-2.593-.412-3.793-1.236a8.555 8.555 0 0 1-2.957-3.122c-.771-1.258-1.157-2.558-1.157-3.902 0-1.518.45-2.97 1.35-4.358a10.222 10.222 0 0 1 3.407-3.382C29.143.412 30.558 0 32.015 0zM8.936 0c1.929 0 3.75.52 5.464 1.561s3.107 2.537 4.179 4.488c1.029 1.951 1.543 4.249 1.543 6.894 0 1.864-.236 3.534-.707 5.008-.471 1.518-1.286 3.1-2.443 4.748-1.114 1.561-2.164 2.862-3.15 3.902-.986 1.084-2.7 2.884-5.143 5.398l-2.893-4.813a22.03 22.03 0 0 0 5.336-4.683c1.543-1.821 2.314-3.491 2.314-5.008 0-.78-.171-1.409-.514-1.886a8.359 8.359 0 0 1-5.014 1.626c-1.329 0-2.593-.412-3.793-1.236a8.555 8.555 0 0 1-2.957-3.122C.387 11.619.001 10.319.001 8.975c0-1.518.429-2.97 1.286-4.358S3.28 2.102 4.694 1.235C6.065.411 7.48-.001 8.937-.001z" />
    </symbol>
    <symbol id="icon-house" viewBox="0 0 32 32">
      <path
        d="M31.599 16.766c.58-.595.524-1.507-.125-2.037L17.173 3.056c-.649-.53-1.69-.518-2.325.025L.498 15.351c-.635.543-.667 1.454-.069 2.034l.36.35c.597.579 1.562.648 2.154.154l1.072-.896v13.116c0 .805.699 1.456 1.561 1.456h5.594c.862 0 1.561-.651 1.561-1.456v-9.176h7.135v9.176c-.012.804.604 1.455 1.466 1.455h5.928c.862 0 1.561-.651 1.561-1.456v-12.93l.662.542c.366.3 1.131.059 1.711-.536l.407-.417z" />
    </symbol>
    <symbol id="icon-heart" viewBox="0 0 28 32">
      <path fill="#ffa5ba" style="fill: var(--color1, #ffa5ba)"
        d="M6.507 0.682c-2.81 0.589-4.991 2.897-5.702 6.037-0.261 1.097-0.249 3.209 0.012 4.409 0.581 2.666 1.873 5.032 3.912 7.087 1.826 1.847 3.426 2.966 5.963 4.132l1.328 0.623v8.414h1.423v-7.953l0.356 0.104c0.202 0.058 0.51 0.058 0.711 0l0.356-0.104v7.953h1.423v-8.426l1.268-0.577c2.454-1.131 4.232-2.355 5.963-4.109 2.762-2.805 4.173-5.99 4.173-9.453 0.012-3.797-1.98-6.879-5.109-7.93-0.664-0.231-1.008-0.265-2.264-0.254-1.316 0.012-1.612 0.058-2.608 0.369-1.174 0.381-2.324 0.981-3.082 1.604l-0.439 0.369-0.64-0.473c-1.648-1.212-3.331-1.801-5.311-1.881-0.688-0.023-1.47 0-1.731 0.058zM9.21 2.113c0.498 0.092 1.174 0.289 1.529 0.427 0.759 0.312 2.027 1.108 2.525 1.581 0.771 0.727 0.984 0.716 1.861-0.069 1.375-1.247 3.592-2.101 5.418-2.101 2.478 0 4.742 1.939 5.465 4.675 0.13 0.485 0.249 1.27 0.261 1.743 0.047 1.039 0.012 1.073-1.6 1.685-1.304 0.496-2.395 0.739-4.268 0.946-1.197 0.139-1.446 0.208-1.814 0.473-0.759 0.566-0.877 0.981-0.877 3.336 0 1.766-0.024 2.101-0.202 2.285-0.249 0.277-0.688 0.265-0.984-0.023-0.225-0.219-0.237-0.381-0.237-2.712 0-2.585-0.071-3.024-0.557-3.543-0.107-0.115-0.948-0.566-1.861-1.016-1.031-0.485-2.063-1.085-2.679-1.558-2.976-2.228-4.292-2.863-6.734-3.243-0.699-0.115-1.292-0.219-1.316-0.231-0.107-0.081 0.533-0.9 1.114-1.408 1.375-1.224 2.94-1.616 4.955-1.247zM5.286 6.569c1.209 0.3 2.573 0.981 3.817 1.904 0.522 0.381 1.186 0.866 1.482 1.085 0.794 0.589 2.11 1.327 3.106 1.743 0.486 0.208 0.948 0.45 1.031 0.554 0.107 0.127 0.142 0.854 0.142 2.666 0 2.181 0.036 2.551 0.225 2.955 0.391 0.831 1.020 1.212 1.98 1.212 0.616 0 1.043-0.185 1.494-0.658 0.51-0.519 0.569-0.843 0.569-3.047 0-2.505-0.024-2.459 1.375-2.574 1.423-0.127 3.189-0.508 4.363-0.935 0.593-0.219 1.103-0.369 1.126-0.335 0.13 0.127-0.759 2.389-1.28 3.266-0.83 1.42-1.482 2.228-2.739 3.405-1.826 1.708-4.339 3.174-6.9 4.051l-0.925 0.323-0.913-0.323c-2.739-0.923-5.157-2.389-7.101-4.271-2.466-2.366-3.758-4.871-4.078-7.837-0.119-1.108 0.059-3.013 0.332-3.463 0.095-0.162 1.79 0.012 2.893 0.277z">
      </path>
      <path fill="none" stroke="#ffa5ba" style="stroke: var(--color1, #ffa5ba)" stroke-linejoin="miter"
        stroke-linecap="butt" stroke-miterlimit="4" stroke-width="0.6154"
        d="M6.507 0.682c-2.81 0.589-4.991 2.897-5.702 6.037-0.261 1.097-0.249 3.209 0.012 4.409 0.581 2.666 1.873 5.032 3.912 7.087 1.826 1.847 3.426 2.966 5.963 4.132l1.328 0.623v8.414h1.423v-7.953l0.356 0.104c0.202 0.058 0.51 0.058 0.711 0l0.356-0.104v7.953h1.423v-8.426l1.268-0.577c2.454-1.131 4.232-2.355 5.963-4.109 2.762-2.805 4.173-5.99 4.173-9.453 0.012-3.797-1.98-6.879-5.109-7.93-0.664-0.231-1.008-0.265-2.264-0.254-1.316 0.012-1.612 0.058-2.608 0.369-1.174 0.381-2.324 0.981-3.082 1.604l-0.439 0.369-0.64-0.473c-1.648-1.212-3.331-1.801-5.311-1.881-0.688-0.023-1.47 0-1.731 0.058zM9.21 2.113c0.498 0.092 1.174 0.289 1.529 0.427 0.759 0.312 2.027 1.108 2.525 1.581 0.771 0.727 0.984 0.716 1.861-0.069 1.375-1.247 3.592-2.101 5.418-2.101 2.478 0 4.742 1.939 5.465 4.675 0.13 0.485 0.249 1.27 0.261 1.743 0.047 1.039 0.012 1.073-1.6 1.685-1.304 0.496-2.395 0.739-4.268 0.946-1.197 0.139-1.446 0.208-1.814 0.473-0.759 0.566-0.877 0.981-0.877 3.336 0 1.766-0.024 2.101-0.202 2.285-0.249 0.277-0.688 0.265-0.984-0.023-0.225-0.219-0.237-0.381-0.237-2.712 0-2.585-0.071-3.024-0.557-3.543-0.107-0.115-0.948-0.566-1.861-1.016-1.031-0.485-2.063-1.085-2.679-1.558-2.976-2.228-4.292-2.863-6.734-3.243-0.699-0.115-1.292-0.219-1.316-0.231-0.107-0.081 0.533-0.9 1.114-1.408 1.375-1.224 2.94-1.616 4.955-1.247zM5.286 6.569c1.209 0.3 2.573 0.981 3.817 1.904 0.522 0.381 1.186 0.866 1.482 1.085 0.794 0.589 2.11 1.327 3.106 1.743 0.486 0.208 0.948 0.45 1.031 0.554 0.107 0.127 0.142 0.854 0.142 2.666 0 2.181 0.036 2.551 0.225 2.955 0.391 0.831 1.020 1.212 1.98 1.212 0.616 0 1.043-0.185 1.494-0.658 0.51-0.519 0.569-0.843 0.569-3.047 0-2.505-0.024-2.459 1.375-2.574 1.423-0.127 3.189-0.508 4.363-0.935 0.593-0.219 1.103-0.369 1.126-0.335 0.13 0.127-0.759 2.389-1.28 3.266-0.83 1.42-1.482 2.228-2.739 3.405-1.826 1.708-4.339 3.174-6.9 4.051l-0.925 0.323-0.913-0.323c-2.739-0.923-5.157-2.389-7.101-4.271-2.466-2.366-3.758-4.871-4.078-7.837-0.119-1.108 0.059-3.013 0.332-3.463 0.095-0.162 1.79 0.012 2.893 0.277z">
      </path>
    </symbol>
    <path stroke-width=".308"
      d="M.667 11.16c.587 2.696 1.894 5.088 3.953 7.163 1.839 1.86 3.455 2.99 6.008 4.163h.001l1.238.581v8.47h1.73v-7.901l.159.047c.229.066.567.066.796 0h.001l.159-.046v7.901h1.73v-8.481l1.179-.536c2.469-1.138 4.263-2.372 6.008-4.141 2.786-2.829 4.217-6.052 4.217-9.561.012-3.851-2.01-7-5.214-8.076-.689-.239-1.054-.274-2.315-.262M.667 11.16l13.614-8.305-.098-.072M.667 11.16C.533 10.545.465 9.706.462 8.884c-.003-.82.059-1.636.194-2.201l.011 4.477zM20.317.482zm0 0c-.658.006-1.07.02-1.444.074-.376.054-.709.146-1.208.303h-.002c-1.188.385-2.356.994-3.133 1.632l-.001.001-.346.291m0 0-.543-.401C11.968 1.152 10.255.553 8.244.471h-.001A15.571 15.571 0 0 0 7.207.47c-.312.01-.586.03-.733.063m7.709 2.25L6.475.532m0 0h-.001l.033.15-.032-.15zm2.537 8.065.001.001c.522.381 1.185.865 1.481 1.084.805.597 2.132 1.341 3.138 1.761m-4.62-2.846 4.62 2.846h-.001M9.012 8.597C7.78 7.683 6.435 7.012 5.25 6.718a14.269 14.269 0 0 0-1.803-.295 6.97 6.97 0 0 0-.715-.04c-.091.001-.16.006-.206.014l-.018.004a2.17 2.17 0 0 0-.148.496 8.7 8.7 0 0 0-.127.893c-.063.665-.077 1.407-.019 1.947.316 2.926 1.588 5.398 4.032 7.743 1.927 1.865 4.325 3.319 7.043 4.235l.002.001.862.305.874-.306c2.542-.871 5.036-2.326 6.844-4.018 1.246-1.168 1.889-1.964 2.711-3.37l.001-.001c.254-.428.603-1.203.874-1.892.135-.344.248-.661.32-.899a2.99 2.99 0 0 0 .058-.218 13.238 13.238 0 0 0-.912.3h-.001c-1.188.432-2.967.816-4.402.944h-.001l-.063.005c-.323.027-.548.045-.715.089-.166.044-.252.106-.311.216-.067.126-.107.328-.127.676-.018.322-.018.746-.018 1.313v.121c0 1.098-.014 1.745-.096 2.184a1.768 1.768 0 0 1-.189.553 1.974 1.974 0 0 1-.328.417c-.235.247-.47.425-.733.54s-.547.164-.871.164c-.5 0-.927-.099-1.284-.317s-.63-.547-.835-.983c-.105-.223-.164-.436-.198-.864-.033-.423-.042-1.067-.042-2.156 0-.906-.009-1.537-.031-1.957a4.775 4.775 0 0 0-.042-.47.824.824 0 0 0-.035-.144M9.012 8.597l5.591 3.354m-.971-.508c.239.102.472.213.654.31.091.049.168.093.225.13.029.019.051.035.068.048s.022.019.023.02m-.97-.508.971.508m-1.444-7.718c-.238-.226-.669-.537-1.14-.832a9.827 9.827 0 0 0-1.336-.718 10.047 10.047 0 0 0-1.5-.419c-1.975-.362-3.49.022-4.825 1.21l-.001.001a6.666 6.666 0 0 0-.795.844 3.015 3.015 0 0 0-.232.33l.243.044c.238.042.56.096.909.154 1.231.192 2.186.449 3.209.942 1.02.492 2.103 1.215 3.592 2.33l.001.001c.605.464 1.625 1.059 2.651 1.541l.003.001c.458.226.898.452 1.238.636.17.092.316.175.427.242.056.034.104.064.142.091a.608.608 0 0 1 .098.08c.128.137.234.274.318.447s.141.372.182.631c.081.512.098 1.281.098 2.571 0 1.17.003 1.784.034 2.135.015.175.036.271.061.332a.362.362 0 0 0 .096.135c.246.24.583.23.762.031l.004-.004c.05-.052.097-.135.125-.456.027-.32.033-.837.033-1.723 0-1.173.029-1.886.159-2.378a1.75 1.75 0 0 1 .292-.622 2.34 2.34 0 0 1 .488-.459l.002-.001a1.77 1.77 0 0 1 .647-.308c.27-.071.643-.124 1.24-.193h.001c1.864-.207 2.941-.447 4.23-.937.405-.154.704-.268.927-.371.225-.103.357-.188.439-.273a.501.501 0 0 0 .134-.302c.02-.142.014-.324.002-.588v-.003a8.836 8.836 0 0 0-.256-1.707v-.001c-.709-2.681-2.921-4.56-5.316-4.56-1.787 0-3.967.84-5.314 2.061l-.001.001c-.22.197-.405.352-.572.459s-.327.175-.495.182a.843.843 0 0 1-.486-.149 3.572 3.572 0 0 1-.517-.425zm-9.972.389-.003-.001.003.001zM2.49 6.407c-.002.001-.002.001 0 0zm.036-.038-.001.002.001-.002z" />
    </symbol>
    <symbol id="icon-apples" viewBox="0 0 32 32">
      <path
        d="M29.626 21.411c-1.292-.458-2.382-.344-3.242.018.145-.877.47-1.832 1.17-2.481a1.065 1.065 0 0 0-1.449-1.561c-1.229 1.14-1.706 2.748-1.874 4.081a4.036 4.036 0 0 0-1.058-.311l1.89-9.83a1.065 1.065 0 0 0-1.046-1.266h-.204c.094-.5.141-.997.137-1.47-.016-1.994-.903-3.495-2.374-4.017-1.41-.5-2.59-.35-3.507.066.145-.976.494-2.063 1.282-2.794A1.065 1.065 0 0 0 17.902.285c-1.32 1.225-1.815 2.965-1.982 4.386-.735-.348-1.644-.527-2.708-.33-1.094-1.571-2.613-2.296-4.089-1.942-1.451.349-2.358 1.115-2.901 1.962-.41-.899-.712-2.001-.452-3.036A1.065 1.065 0 0 0 3.705.806c-.439 1.746.095 3.476.729 4.758-1.016.137-2.117.65-3.049 1.866-.578.755-.773 1.698-.596 2.7a1.065 1.065 0 0 0-.674 1.197l3.809 19.81c.096.501.535.864 1.046.864h15.237c.511 0 .949-.362 1.046-.864l.037-.195c.287.198.596.363.927.487 1.266.471 2.447.278 3.044.118.316.085.795.179 1.364.179.506 0 1.084-.075 1.68-.297 2.36-.879 3.615-3.839 3.596-6.178-.015-1.904-.866-3.339-2.276-3.839zm-6.952-9.22c-.49 4.705-4.452 7.91-9.971 7.91s-9.481-3.204-9.971-7.91h19.942zm-6.642-4.676a1.047 1.047 0 0 0 1.86 0c.029-.048.29-.466.769-.777.629-.408 1.35-.46 2.203-.157.851.302.952 1.518.956 2.027.004.464-.064.962-.191 1.453h-7.126c.236-1.19.094-2.492-.289-3.669a2.12 2.12 0 0 1 1.047.346c.479.311.74.729.769.777zM3.078 8.724c.55-.719 1.182-1.068 1.932-1.069h.002c.57 0 1.016.208 1.066.232.341.19.749.172 1.079-.037.331-.211.51-.592.481-.983-.006-.077-.115-1.893 1.983-2.397.876-.211 1.625.754 1.906 1.178.807 1.22 1.221 3.108.777 4.413H2.955c-.141-.443-.179-.943.122-1.336zM5.852 29.87 3.741 18.892c.138.133.281.263.427.389 2.208 1.901 5.239 2.948 8.535 2.948s6.328-1.047 8.535-2.948l.152-.135-.431 2.243c-.02.007-.041.013-.061.021-1.41.5-2.261 1.935-2.276 3.839a7.862 7.862 0 0 0 .898 3.621l-.192.999H5.851zm21.71-.438c-.943.351-1.881.017-1.916.005a1.04 1.04 0 0 0-.768 0c-.009.004-.96.352-1.917-.005-1.338-.498-2.223-2.556-2.21-4.165.004-.466.095-1.578.858-1.849.349-.124.661-.175.939-.175 1.107 0 1.657.812 1.782 1.024a1.047 1.047 0 0 0 1.862 0c.156-.265.977-1.468 2.721-.849.763.271.854 1.383.858 1.849.013 1.609-.872 3.667-2.21 4.166z" />
    </symbol>
    <symbol id="icon-bucked" viewBox="0 0 21 32">
      <path fill="#ffa5ba" style="fill: var(--color1, #ffa5ba)"
        d="M2.333 0.144c-0.35 0.188-0.553 0.563-0.553 1.006 0.006 0.813 0.209 1.556 0.614 2.2l0.178 0.294-0.338 0.381c-0.381 0.425-0.473 0.581-0.645 1.088-0.141 0.412-0.153 1.162-0.031 1.581 0.43 1.438 1.854 2.269 3.248 1.9 0.473-0.125 0.761-0.281 1.203-0.656l0.375-0.312 0.35 0.175c0.196 0.1 0.528 0.244 0.743 0.325l0.381 0.138v0.7c0 1.106 0.227 1.762 0.81 2.356s1.498 0.9 2.29 0.763c0.565-0.1 1.117-0.381 1.492-0.763 0.583-0.594 0.81-1.25 0.81-2.356v-0.7l0.387-0.138c0.209-0.081 0.54-0.225 0.737-0.325l0.35-0.175 0.375 0.312c0.442 0.375 0.731 0.531 1.203 0.656 1.394 0.369 2.818-0.462 3.248-1.9 0.123-0.419 0.111-1.169-0.031-1.581-0.172-0.506-0.264-0.662-0.645-1.088l-0.338-0.381 0.178-0.294c0.405-0.644 0.608-1.387 0.614-2.2 0-0.444-0.203-0.819-0.553-1.006l-0.264-0.144h-15.926l-0.264 0.144zM17.068 2.1c0 0.019-0.178 0.313-0.399 0.663-0.651 1.031-0.626 1.256 0.239 2.169 0.313 0.331 0.602 0.662 0.645 0.737 0.233 0.463-0.233 1.038-0.749 0.919-0.123-0.025-0.393-0.244-0.786-0.631-0.786-0.775-1.056-0.862-1.658-0.519-0.694 0.4-1.578 0.806-2.008 0.925-0.608 0.175-0.817 0.306-0.976 0.638-0.129 0.256-0.141 0.362-0.141 1.362 0 1.231-0.049 1.431-0.399 1.6-0.252 0.125-0.301 0.125-0.553 0-0.35-0.169-0.399-0.369-0.399-1.6 0-1-0.012-1.106-0.135-1.362-0.166-0.325-0.375-0.463-0.982-0.638-0.528-0.15-1.308-0.494-1.738-0.775-0.405-0.263-0.761-0.362-1.044-0.313-0.184 0.037-0.368 0.181-0.86 0.662-0.405 0.394-0.694 0.625-0.817 0.65-0.51 0.119-0.976-0.463-0.743-0.919 0.043-0.075 0.332-0.406 0.645-0.737 0.866-0.912 0.89-1.138 0.239-2.169-0.221-0.35-0.399-0.644-0.399-0.663 0-0.025 2.929-0.038 6.508-0.038s6.508 0.013 6.508 0.038z">
      </path>
      <path fill="#ffa5ba" style="fill: var(--color1, #ffa5ba)"
        d="M0.485 13.206c-0.313 0.212-0.485 0.512-0.485 0.844 0 0.225 3.119 16.925 3.229 17.275 0.055 0.194 0.282 0.425 0.522 0.55 0.227 0.125 0.387 0.125 6.809 0.125s6.582 0 6.809-0.125c0.239-0.125 0.467-0.356 0.522-0.55 0.11-0.35 3.229-17.050 3.229-17.275 0-0.331-0.172-0.631-0.485-0.844l-0.209-0.144h-19.732l-0.209 0.144zM18.695 15.481c-0.061 0.5-0.418 1.587-0.682 2.081-1.283 2.375-3.714 3.819-6.729 3.988-2.278 0.131-4.206-0.331-5.82-1.394-0.933-0.612-1.713-1.45-2.265-2.438-0.307-0.544-0.712-1.712-0.774-2.237l-0.043-0.356h16.356l-0.043 0.356zM4.39 21.919c2.634 1.775 6.569 2.244 9.885 1.169 1.105-0.356 2.235-0.956 3.18-1.688 0.276-0.219 0.295-0.219 0.264-0.081-0.018 0.081-0.381 1.994-0.804 4.244s-0.78 4.156-0.798 4.231l-0.031 0.144h-11.051l-0.031-0.144c-0.018-0.075-0.375-1.981-0.798-4.231s-0.786-4.163-0.804-4.244c-0.031-0.137-0.012-0.137 0.264 0.081 0.16 0.125 0.491 0.356 0.724 0.519z">
      </path>
    </symbol>
    <symbol id="icon-btn-arrow" viewBox="0 0 19 32">
      <path fill="none" stroke="#d41443" style="stroke:var(--color1, #d41443)" stroke-linejoin="round"
        stroke-linecap="round" stroke-width="6.4" d="M3.2 3.2 16 16 3.2 28.8" />
    </symbol>
    <symbol id="icon-btn-arrow-wight" viewBox="0 0 19 32">
      <path fill="none" stroke="#fff" style="stroke:var(--color1, #fff)" stroke-linejoin="round" stroke-linecap="round" stroke-width="6.4" d="M3.2 3.2 16 16 3.2 28.8"/>
    </symbol>
    <symbol id="icon-icon-right" viewBox="0 0 32 32">
      <path
        d="M22.748 12.7l-4.781-4.781c-0.362-0.362-0.862-0.585-1.414-0.585-1.105 0-2 0.896-2 2 0 0.553 0.224 1.053 0.586 1.415l3.252 3.252h-11.724c-1.105 0-2 0.895-2 2s0.895 2 2 2v0h11.724l-3.252 3.252c-0.362 0.362-0.586 0.862-0.586 1.415 0 1.105 0.896 2 2 2 0.552 0 1.052-0.224 1.414-0.585l4.781-4.781c0.843-0.845 1.364-2.012 1.364-3.3s-0.521-2.455-1.364-3.3l0 0z">
      </path>
    </symbol>
    <symbol id="icon-mobile" viewBox="0 0 32 32">
      <path
        d="M23 0h-14c-1.65 0-3 1.35-3 3v26c0 1.65 1.35 3 3 3h14c1.65 0 3-1.35 3-3v-26c0-1.65-1.35-3-3-3zM12 1.5h8v1h-8v-1zM16 30c-1.105 0-2-0.895-2-2s0.895-2 2-2 2 0.895 2 2-0.895 2-2 2zM24 24h-16v-20h16v20z">
      </path>
    </symbol>
    <symbol id="icon-user" viewBox="0 0 32 32">
      <path
        d="M18 22.082v-1.649c2.203-1.241 4-4.337 4-7.432 0-4.971 0-9-6-9s-6 4.029-6 9c0 3.096 1.797 6.191 4 7.432v1.649c-6.784 0.555-12 3.888-12 7.918h28c0-4.030-5.216-7.364-12-7.918z">
      </path>
    </symbol>
    <symbol id="icon-mail" viewBox="0 0 32 32">
      <path
        d="M16 0c-8.837 0-16 7.163-16 16s7.163 16 16 16 16-7.163 16-16-7.163-16-16-16zM8 8h16c0.286 0 0.563 0.061 0.817 0.177l-8.817 10.286-8.817-10.287c0.254-0.116 0.531-0.177 0.817-0.177zM6 22v-12c0-0.042 0.002-0.084 0.004-0.125l5.864 6.842-5.8 5.8c-0.045-0.167-0.069-0.34-0.069-0.517zM24 24h-16c-0.177 0-0.35-0.024-0.517-0.069l5.691-5.691 2.826 3.297 2.826-3.297 5.691 5.691c-0.167 0.045-0.34 0.069-0.517 0.069zM26 22c0 0.177-0.024 0.35-0.069 0.517l-5.8-5.8 5.865-6.842c0.003 0.041 0.004 0.083 0.004 0.125v12z">
      </path>
    </symbol>
    <symbol id="icon-cross" viewBox="0 0 32 32">
      <path
        d="M31.708 25.708c-0-0-0-0-0-0l-9.708-9.708 9.708-9.708c0-0 0-0 0-0 0.105-0.105 0.18-0.227 0.229-0.357 0.133-0.356 0.057-0.771-0.229-1.057l-4.586-4.586c-0.286-0.286-0.702-0.361-1.057-0.229-0.13 0.048-0.252 0.124-0.357 0.228 0 0-0 0-0 0l-9.708 9.708-9.708-9.708c-0-0-0-0-0-0-0.105-0.104-0.227-0.18-0.357-0.228-0.356-0.133-0.771-0.057-1.057 0.229l-4.586 4.586c-0.286 0.286-0.361 0.702-0.229 1.057 0.049 0.13 0.124 0.252 0.229 0.357 0 0 0 0 0 0l9.708 9.708-9.708 9.708c-0 0-0 0-0 0-0.104 0.105-0.18 0.227-0.229 0.357-0.133 0.355-0.057 0.771 0.229 1.057l4.586 4.586c0.286 0.286 0.702 0.361 1.057 0.229 0.13-0.049 0.252-0.124 0.357-0.229 0-0 0-0 0-0l9.708-9.708 9.708 9.708c0 0 0 0 0 0 0.105 0.105 0.227 0.18 0.357 0.229 0.356 0.133 0.771 0.057 1.057-0.229l4.586-4.586c0.286-0.286 0.362-0.702 0.229-1.057-0.049-0.13-0.124-0.252-0.229-0.357z">
      </path>
    </symbol>
  </defs>
</svg>